<?xml version="1.0" encoding="UTF-8"?>
<svg id="_레이어_1" data-name="레이어_1" xmlns="http://www.w3.org/2000/svg" version="1.1" viewBox="0 0 256 48">
  <!-- Generator: Adobe Illustrator 29.1.0, SVG Export Plug-In . SVG Version: 2.1.0 Build 142)  -->
  <g>
    <path d="M252.3,19.8c-1.5,0-2.8.2-4,.5-1.2.3-2.1.9-2.7,1.6v12.5h-7.6V13.4h7v4c.7-1.4,1.7-2.5,2.8-3.2,1.1-.8,2.3-1.2,3.6-1.2h.6c.1,0,.3,0,.4,0v6.8Z"/>
    <path d="M224,34.8c-1.8,0-3.5-.3-4.9-.8-1.4-.6-2.7-1.4-3.6-2.4-1-1-1.7-2.1-2.2-3.4-.5-1.3-.8-2.6-.8-4,0-2,.4-3.9,1.3-5.6.9-1.7,2.2-3.1,3.9-4.1,1.7-1,3.8-1.6,6.3-1.6s4.6.5,6.3,1.5c1.7,1,3,2.3,3.9,4,.9,1.7,1.3,3.5,1.3,5.4s0,.8,0,1.2c0,.4,0,.8-.1,1.1h-14.8c0,.7.3,1.4.6,1.8.4.5.8.8,1.4,1,.6.2,1.1.3,1.7.3s1.6-.2,2.3-.6c.7-.4,1.2-.9,1.5-1.6l6.4,1.8c-.6,1.1-1.3,2.1-2.4,3-1,.9-2.2,1.5-3.5,2-1.4.5-2.9.7-4.6.7ZM220.4,21.6h7c0-.7-.3-1.3-.6-1.8-.3-.5-.7-.9-1.2-1.1-.5-.3-1-.4-1.7-.4s-1.2.1-1.7.4c-.5.3-.9.6-1.2,1.1-.3.5-.5,1.1-.6,1.8Z"/>
    <path d="M199.7,34.8c-1.8,0-3.5-.3-4.9-.8-1.4-.6-2.7-1.4-3.6-2.4-1-1-1.7-2.1-2.2-3.4-.5-1.3-.8-2.6-.8-4,0-2,.4-3.9,1.3-5.6.9-1.7,2.2-3.1,3.9-4.1,1.7-1,3.8-1.6,6.3-1.6s4.6.5,6.3,1.5c1.7,1,3,2.3,3.9,4,.9,1.7,1.3,3.5,1.3,5.4s0,.8,0,1.2c0,.4,0,.8-.1,1.1h-14.8c0,.7.3,1.4.6,1.8.4.5.8.8,1.4,1,.6.2,1.1.3,1.7.3s1.6-.2,2.3-.6c.7-.4,1.2-.9,1.5-1.6l6.4,1.8c-.6,1.1-1.3,2.1-2.4,3-1,.9-2.2,1.5-3.5,2-1.4.5-2.9.7-4.6.7ZM196.1,21.6h7c0-.7-.3-1.3-.6-1.8-.3-.5-.7-.9-1.2-1.1-.5-.3-1-.4-1.7-.4s-1.2.1-1.7.4c-.5.3-.9.6-1.2,1.1-.3.5-.5,1.1-.6,1.8Z"/>
    <path d="M161.2,34.4V6h10.9c3.1,0,5.8.6,7.9,1.9,2.1,1.3,3.7,3,4.8,5.1,1.1,2.1,1.6,4.5,1.6,7.1s-.6,5.4-1.8,7.5c-1.2,2.1-2.8,3.8-5,5-2.1,1.2-4.6,1.8-7.5,1.8h-10.9ZM178.5,20.2c0-1.5-.3-2.7-.8-3.8-.5-1.1-1.2-2-2.2-2.6-1-.6-2.1-.9-3.4-.9h-3.1v14.8h3.1c1.4,0,2.5-.3,3.4-1,1-.6,1.7-1.5,2.2-2.6.5-1.1.8-2.4.8-3.8Z"/>
    <path d="M158.3,18.9c-1.5,0-2.9.3-4.2.8-1.3.5-2.2,1.2-2.7,2.2v12.6h-6.4V13.4h5.9v4.2c.7-1.4,1.7-2.5,2.8-3.3,1.1-.8,2.3-1.2,3.6-1.2h.6c.2,0,.3,0,.4,0v5.8Z"/>
    <path d="M130.9,34.8c-1.7,0-3.2-.3-4.6-.8-1.4-.6-2.5-1.4-3.5-2.4-1-1-1.7-2.2-2.2-3.4-.5-1.3-.8-2.7-.8-4.1s.4-3.8,1.3-5.5c.9-1.7,2.2-3,3.8-4,1.7-1,3.7-1.5,5.9-1.5s4.3.5,5.9,1.5c1.6,1,2.9,2.3,3.7,4,.9,1.6,1.3,3.4,1.3,5.3s0,.7,0,1c0,.3,0,.6,0,.8h-16.2c.1,1.1.4,2,.9,2.8.5.8,1.2,1.4,2,1.8.8.4,1.7.6,2.6.6s2.1-.3,3-.8c1-.5,1.6-1.2,2-2.1l4.6,1.3c-.5,1.1-1.2,2-2.2,2.8-.9.8-2,1.5-3.3,2-1.3.5-2.7.7-4.2.7ZM125.5,22.2h11c-.1-1.1-.4-2-.9-2.8-.5-.8-1.1-1.4-1.9-1.8-.8-.5-1.7-.7-2.7-.7s-1.8.2-2.6.7c-.8.4-1.4,1-1.9,1.8-.5.8-.8,1.7-.9,2.8Z"/>
    <path d="M104.5,34.6c-1.4,0-2.7-.3-3.9-.8-1.2-.6-2.2-1.4-3-2.4-.8-1-1.5-2.1-2-3.4-.5-1.3-.7-2.6-.7-4s.2-2.9.7-4.2c.5-1.3,1.1-2.5,2-3.4.9-1,1.9-1.8,3.1-2.4,1.2-.6,2.5-.8,3.9-.8s3.1.4,4.4,1.2c1.3.8,2.3,1.8,3.2,3.1v-4h3.9v20.3c0,2-.5,3.7-1.5,5.2-1,1.4-2.3,2.5-4,3.2s-3.6,1.1-5.7,1.1-4.2-.4-5.8-1.2c-1.5-.8-2.8-1.9-3.9-3.3l2.5-2.3c.8,1.1,1.8,2,3.1,2.6,1.3.6,2.6.9,4.1.9s2.3-.2,3.3-.7c1-.4,1.9-1.1,2.5-2,.6-.9.9-2.1.9-3.4v-3.2c-.7,1.3-1.8,2.2-3.1,3-1.3.7-2.7,1-4.1,1ZM106,31c.7,0,1.3-.1,1.9-.3.6-.2,1.2-.5,1.7-.9.5-.4,1-.8,1.4-1.3.4-.5.6-1,.8-1.6v-5.5c-.3-.9-.8-1.7-1.5-2.4-.6-.7-1.4-1.2-2.2-1.6-.8-.4-1.6-.6-2.4-.6s-1.8.2-2.6.6c-.7.4-1.4.9-1.9,1.6-.5.7-.9,1.4-1.2,2.3-.3.9-.4,1.7-.4,2.6s.2,1.9.5,2.7c.3.8.8,1.6,1.4,2.2.6.6,1.3,1.1,2.1,1.5.8.3,1.7.5,2.6.5Z"/>
    <path d="M91,34.4h-3.5v-11.7c0-2.2-.3-3.8-1-4.8-.7-1-1.7-1.6-3.1-1.6s-1.9.2-2.9.7c-.9.5-1.8,1.1-2.5,2-.7.8-1.2,1.7-1.6,2.8v12.6h-3.5V13.5h3.2v4.5c.6-1,1.3-1.8,2.2-2.6.9-.7,1.9-1.3,3-1.7,1.1-.4,2.3-.6,3.5-.6s2.2.2,3,.7c.8.4,1.5,1,1.9,1.8.5.8.8,1.7,1,2.8.2,1.1.3,2.2.3,3.5v12.5Z"/>
    <path d="M58.1,34.8c-1.5,0-2.9-.3-4.2-.8-1.3-.6-2.3-1.4-3.3-2.4-.9-1-1.6-2.2-2.1-3.4-.5-1.3-.8-2.7-.8-4.1s.3-2.9.8-4.2c.5-1.3,1.2-2.5,2.2-3.4.9-1,2-1.8,3.3-2.4,1.3-.6,2.7-.9,4.2-.9s2.9.3,4.1.9c1.3.6,2.3,1.3,3.3,2.4.9,1,1.7,2.1,2.2,3.4.5,1.3.8,2.7.8,4.2s-.3,2.8-.8,4.1c-.5,1.3-1.2,2.4-2.2,3.4-.9,1-2,1.8-3.3,2.4-1.3.6-2.6.8-4.2.8ZM50.6,24.1c0,1.5.3,3,1,4.2.7,1.3,1.6,2.3,2.8,3,1.1.7,2.4,1.1,3.8,1.1s2.7-.4,3.8-1.1c1.1-.7,2.1-1.8,2.8-3,.7-1.3,1-2.7,1-4.2s-.3-3-1-4.2c-.7-1.3-1.6-2.3-2.8-3-1.1-.7-2.4-1.1-3.8-1.1s-2.7.4-3.8,1.2c-1.1.8-2,1.8-2.7,3.1-.7,1.3-1,2.7-1,4.2Z"/>
    <path d="M45.6,15.4c-1.9,0-3.5.6-4.9,1.7-1.4,1-2.4,2.5-2.9,4.3v13h-2V13.6h1.9v5.1c.7-1.5,1.7-2.7,2.9-3.6,1.2-.9,2.5-1.5,3.8-1.6.3,0,.5,0,.7,0h.5v1.9Z"/>
    <path d="M32.2,33.4c0,0-.3.1-.6.4-.4.2-.9.4-1.4.6-.6.2-1.2.2-2,.2s-1.3-.1-1.9-.4c-.6-.3-1.1-.7-1.4-1.2-.3-.5-.5-1.2-.5-1.9V14.8h-3v-1.2h3v-7.2h1.4v7.2h4.9v1.2h-4.9v16.2c0,.8.3,1.4.9,1.8.5.4,1.1.6,1.8.6s1.6-.1,2.2-.4c.6-.3,1-.5,1-.6l.5,1.1Z"/>
    <path d="M10.9,34.8c-1.6,0-3-.3-4.4-.8-1.3-.6-2.5-1.4-3.6-2.6l.6-.5c1.1,1,2.2,1.8,3.4,2.3,1.2.5,2.5.8,4,.8s3.7-.4,5-1.3c1.3-.9,1.9-2.1,1.9-3.7s-.3-1.8-.8-2.4c-.6-.6-1.4-1.1-2.5-1.4-1.1-.4-2.4-.7-3.9-1.1-1.4-.3-2.6-.7-3.6-1-.9-.3-1.6-.8-2.1-1.4-.5-.6-.7-1.4-.7-2.5s.3-2.5,1-3.4c.7-.9,1.6-1.5,2.7-1.9,1.1-.4,2.3-.6,3.6-.6s3.1.3,4.3.9c1.2.6,2,1.3,2.5,2.1l-.7.3c-.5-.8-1.3-1.5-2.5-1.9-1.1-.4-2.4-.6-3.7-.6s-2.2.2-3.2.5c-1,.3-1.7.9-2.3,1.6s-.9,1.7-.9,2.8.2,1.6.6,2.1c.4.5,1,.9,1.8,1.2.8.3,1.9.6,3.2.9,1.7.4,3.1.8,4.3,1.2,1.2.4,2.1.9,2.8,1.6.6.6,1,1.6,1,2.8,0,1.8-.7,3.3-2.1,4.4-1.4,1.1-3.3,1.6-5.6,1.6Z"/>
  </g>
  <g>
    <path d="M252,13h-.6c-1.3,0-2.4.4-3.6,1.2-1.1.7-2.1,1.8-2.8,3.2v-4h-7v21h7.6v-12.5c.6-.7,1.5-1.3,2.7-1.6,1.2-.3,2.5-.5,4-.5v-6.8c-.1,0-.2,0-.4,0Z"/>
    <path d="M230.4,14.5c-1.7-1-3.8-1.5-6.3-1.5s-4.6.5-6.3,1.6c-1.7,1-3,2.4-3.9,4.1-.9,1.7-1.3,3.5-1.3,5.6s.3,2.8.8,4c.5,1.3,1.2,2.4,2.2,3.4,1,1,2.2,1.8,3.6,2.4,1.4.6,3.1.8,4.9.8s3.2-.2,4.6-.7c1.4-.5,2.5-1.2,3.5-2,1-.9,1.8-1.8,2.4-3l-6.4-1.8c-.2.7-.7,1.2-1.5,1.6-.7.4-1.5.6-2.3.6s-1.2-.1-1.7-.3c-.5-.2-1-.5-1.4-1-.3-.5-.5-1.1-.6-1.8h14.8c0-.3,0-.7.1-1.1,0-.4,0-.8,0-1.2,0-1.9-.4-3.7-1.3-5.4-.9-1.7-2.2-3-3.9-4ZM220.4,21.6c0-.7.3-1.3.6-1.8.3-.5.7-.9,1.2-1.1.5-.3,1.1-.4,1.7-.4s1.2.1,1.7.4c.5.3.9.6,1.2,1.1.3.5.5,1.1.6,1.8h-7Z"/>
    <path d="M206,14.5c-1.7-1-3.8-1.5-6.3-1.5s-4.6.5-6.3,1.6c-1.7,1-3,2.4-3.9,4.1-.9,1.7-1.3,3.5-1.3,5.6s.3,2.8.8,4c.5,1.3,1.2,2.4,2.2,3.4,1,1,2.2,1.8,3.6,2.4,1.4.6,3.1.8,4.9.8s3.2-.2,4.6-.7c1.4-.5,2.5-1.2,3.5-2,1-.9,1.8-1.8,2.4-3l-6.4-1.8c-.2.7-.7,1.2-1.5,1.6-.7.4-1.5.6-2.3.6s-1.2-.1-1.7-.3c-.5-.2-1-.5-1.4-1-.3-.5-.5-1.1-.6-1.8h14.8c0-.3,0-.7.1-1.1,0-.4,0-.8,0-1.2,0-1.9-.4-3.7-1.3-5.4-.9-1.7-2.2-3-3.9-4ZM196.1,21.6c0-.7.3-1.3.6-1.8.3-.5.7-.9,1.2-1.1.5-.3,1.1-.4,1.7-.4s1.2.1,1.7.4c.5.3.9.6,1.2,1.1.3.5.5,1.1.6,1.8h-7Z"/>
    <path d="M180,7.9c-2.1-1.3-4.7-1.9-7.9-1.9h-10.9v28.4h10.9c2.9,0,5.4-.6,7.5-1.8,2.2-1.2,3.8-2.8,5-5,1.2-2.1,1.8-4.6,1.8-7.5s-.5-5-1.6-7.1c-1.1-2.2-2.7-3.9-4.8-5.1ZM177.7,24c-.5,1.1-1.2,2-2.2,2.6-.9.6-2.1,1-3.4,1h-3.1v-14.8h3.1c1.3,0,2.5.3,3.4.9,1,.6,1.7,1.5,2.2,2.6.5,1.1.8,2.4.8,3.8s-.3,2.7-.8,3.8Z"/>
    <path d="M157.2,13.1c-1.3,0-2.5.4-3.6,1.2-1.1.8-2.1,1.9-2.8,3.3v-4.2h-5.9v21h6.4v-12.6c.6-1,1.5-1.7,2.7-2.2,1.3-.5,2.7-.8,4.2-.8v-5.8c-.1,0-.2,0-.4,0h-.6Z"/>
    <path d="M136.9,14.6c-1.6-1-3.6-1.5-5.9-1.5s-4.2.5-5.9,1.5c-1.7,1-2.9,2.3-3.8,4-.9,1.7-1.3,3.5-1.3,5.5s.3,2.8.8,4.1c.5,1.3,1.3,2.4,2.2,3.4,1,1,2.1,1.8,3.5,2.4,1.4.6,2.9.8,4.6.8s3-.2,4.2-.7c1.3-.5,2.4-1.1,3.3-2,1-.8,1.7-1.8,2.2-2.8l-4.6-1.3c-.3.9-1,1.5-2,2.1-.9.5-1.9.8-3,.8s-1.8-.2-2.6-.6c-.8-.4-1.5-1-2-1.8-.5-.8-.8-1.7-.9-2.8h16.2c0-.2,0-.5,0-.8,0-.3,0-.7,0-1,0-1.9-.4-3.7-1.3-5.3-.9-1.7-2.1-3-3.7-4ZM125.5,22.2c.1-1.1.4-2,.9-2.8.5-.8,1.1-1.4,1.9-1.8.8-.5,1.7-.7,2.6-.7s1.9.2,2.7.7c.8.4,1.4,1,1.9,1.8.5.8.8,1.7.9,2.8h-11Z"/>
    <path d="M112.3,17.4c-.8-1.3-1.9-2.3-3.2-3.1-1.3-.8-2.7-1.2-4.4-1.2s-2.7.3-3.9.8c-1.2.6-2.2,1.3-3.1,2.4-.9,1-1.5,2.1-2,3.4s-.7,2.7-.7,4.2.2,2.8.7,4c.5,1.3,1.1,2.4,2,3.4.9,1,1.9,1.8,3,2.4,1.2.6,2.5.8,3.9.8s2.8-.3,4.1-1c1.3-.7,2.3-1.7,3.1-3v3.2c0,1.4-.3,2.5-.9,3.4-.6.9-1.4,1.6-2.5,2-1,.5-2.1.7-3.3.7s-2.8-.3-4.1-.9c-1.3-.6-2.3-1.4-3.1-2.6l-2.5,2.3c1.1,1.4,2.4,2.5,3.9,3.3,1.5.8,3.4,1.2,5.8,1.2s4-.4,5.7-1.1,3-1.8,4-3.2c1-1.4,1.5-3.1,1.5-5.2V13.5h-3.9v4ZM111.7,26.9c-.2.6-.4,1.1-.8,1.6-.4.5-.8.9-1.4,1.3-.5.4-1.1.7-1.7.9-.6.2-1.3.3-1.9.3s-1.8-.2-2.6-.5c-.8-.4-1.5-.9-2.1-1.5-.6-.7-1.1-1.4-1.4-2.2-.3-.8-.5-1.7-.5-2.7s.1-1.8.4-2.6c.3-.9.7-1.6,1.2-2.3.5-.7,1.2-1.2,1.9-1.6.8-.4,1.6-.6,2.6-.6s1.6.2,2.4.6,1.5.9,2.2,1.6c.6.7,1.1,1.5,1.5,2.4v5.5Z"/>
    <path d="M89.7,15.7c-.5-.8-1.1-1.4-1.9-1.8-.8-.5-1.8-.7-3-.7s-2.4.2-3.5.6c-1.1.4-2.1,1-3,1.7-.9.7-1.6,1.6-2.2,2.6v-4.5h-3.2v20.9h3.5v-12.6c.3-1.1.8-2,1.6-2.8.7-.8,1.6-1.5,2.5-2,1-.5,1.9-.7,2.9-.7,1.4,0,2.4.5,3.1,1.6.7,1,1,2.6,1,4.8v11.7h3.5v-12.5c0-1.3-.1-2.4-.3-3.5-.2-1.1-.5-2-1-2.8Z"/>
    <path d="M65.6,16.4c-.9-1-2-1.8-3.3-2.4-1.3-.6-2.6-.9-4.1-.9s-2.9.3-4.2.9c-1.3.6-2.3,1.3-3.3,2.4-.9,1-1.7,2.1-2.2,3.4-.5,1.3-.8,2.7-.8,4.2s.3,2.8.8,4.1c.5,1.3,1.2,2.4,2.1,3.4.9,1,2,1.8,3.3,2.4,1.3.6,2.7.8,4.2.8s2.9-.3,4.2-.8c1.3-.6,2.4-1.4,3.3-2.4.9-1,1.7-2.2,2.2-3.4.5-1.3.8-2.7.8-4.1s-.3-2.9-.8-4.2c-.5-1.3-1.2-2.5-2.2-3.4ZM64.7,28.2c-.7,1.3-1.6,2.3-2.8,3-1.1.7-2.4,1.1-3.8,1.1s-2.7-.4-3.8-1.1c-1.1-.7-2.1-1.7-2.8-3-.7-1.3-1-2.7-1-4.2s.3-3,1-4.2c.7-1.3,1.6-2.3,2.7-3.1,1.1-.8,2.4-1.2,3.8-1.2s2.7.4,3.8,1.1c1.1.7,2.1,1.8,2.8,3,.7,1.3,1,2.7,1,4.2s-.3,2.9-1,4.2Z"/>
    <path d="M44.3,13.6c-1.3.1-2.6.7-3.8,1.6-1.2.9-2.2,2.1-2.9,3.6v-5.1h-1.9v20.8h2v-13c.6-1.8,1.5-3.3,2.9-4.3,1.4-1.1,3.1-1.6,4.9-1.7v-1.9h-.5c-.2,0-.5,0-.7,0Z"/>
    <path d="M30.7,32.9c-.6.3-1.4.4-2.2.4s-1.3-.2-1.8-.6c-.5-.4-.8-1-.9-1.8V14.8h4.9v-1.2h-4.9v-7.2h-1.4v7.2h-3v1.2h3v16.4c0,.7.2,1.3.5,1.9.3.5.8.9,1.4,1.2.6.3,1.2.4,1.9.4s1.4,0,2-.2c.6-.2,1.1-.4,1.4-.6.4-.2.6-.3.6-.4l-.5-1.1c0,0-.4.2-1,.6Z"/>
    <path d="M14.9,24.5c-1.2-.4-2.6-.8-4.3-1.2-1.3-.3-2.3-.6-3.2-.9-.8-.3-1.4-.7-1.8-1.2-.4-.5-.6-1.2-.6-2.1s.3-2.1.9-2.8c.6-.7,1.4-1.3,2.3-1.6,1-.3,2-.5,3.2-.5s2.6.2,3.7.6c1.1.4,2,1.1,2.5,1.9l.7-.3c-.5-.9-1.3-1.6-2.5-2.1-1.2-.6-2.6-.9-4.3-.9s-2.5.2-3.6.6c-1.1.4-2,1-2.7,1.9-.7.9-1,2-1,3.4s.2,1.9.7,2.5c.5.6,1.2,1.1,2.1,1.4,1,.3,2.1.7,3.6,1,1.5.3,2.9.7,3.9,1.1,1.1.3,1.9.8,2.5,1.4.6.6.8,1.3.8,2.4,0,1.6-.6,2.8-1.9,3.7-1.3.9-2.9,1.3-5,1.3s-2.8-.3-4-.8c-1.2-.5-2.3-1.3-3.4-2.3l-.6.5c1,1.1,2.2,2,3.6,2.6,1.3.5,2.8.8,4.4.8,2.3,0,4.2-.5,5.6-1.6,1.4-1.1,2.1-2.5,2.1-4.4s-.3-2.1-1-2.8c-.6-.7-1.6-1.2-2.8-1.6Z"/>
  </g>
</svg>